<?xml version="1.0" encoding="UTF-8" standalone="no"?>
<svg
   height="24"
   viewBox="0 -960 960 960"
   width="24"
   version="1.1"
   id="svg4"
   sodipodi:docname="classroom.svg"
   inkscape:version="1.2.1 (9c6d41e410, 2022-07-14)"
   inkscape:export-filename="classroom.png"
   inkscape:export-xdpi="2048"
   inkscape:export-ydpi="2048"
   xml:space="preserve"
   xmlns:inkscape="http://www.inkscape.org/namespaces/inkscape"
   xmlns:sodipodi="http://sodipodi.sourceforge.net/DTD/sodipodi-0.dtd"
   xmlns:xlink="http://www.w3.org/1999/xlink"
   xmlns="http://www.w3.org/2000/svg"
   xmlns:svg="http://www.w3.org/2000/svg"><defs
     id="defs8"><radialGradient
       id="paint1_radial"
       cx="0"
       cy="0"
       r="1"
       gradientUnits="userSpaceOnUse"
       gradientTransform="matrix(118.241,0,0,102.118,7.875,13.254)"><stop
         stop-color="#fff"
         stop-opacity=".1"
         id="stop214" /><stop
         offset="1"
         stop-color="#fff"
         stop-opacity=".01"
         id="stop216" /></radialGradient><linearGradient
       id="paint0_linear"
       x1="63.015"
       y1="87.875"
       x2="63.015"
       y2="96.844"
       gradientUnits="userSpaceOnUse"><stop
         stop-color="#BF360C"
         stop-opacity=".2"
         id="stop219" /><stop
         offset="1"
         stop-color="#BF360C"
         stop-opacity=".02"
         id="stop221" /></linearGradient><pattern
       id="pattern0"
       patternContentUnits="objectBoundingBox"
       width="1"
       height="1"><use
         xlink:href="#image0"
         transform="scale(.0049 .01136)"
         id="use224" /></pattern></defs><sodipodi:namedview
     id="namedview6"
     pagecolor="#505050"
     bordercolor="#ffffff"
     borderopacity="1"
     inkscape:showpageshadow="0"
     inkscape:pageopacity="0"
     inkscape:pagecheckerboard="1"
     inkscape:deskcolor="#505050"
     showgrid="false"
     inkscape:zoom="23.982705"
     inkscape:cx="2.0639874"
     inkscape:cy="11.695928"
     inkscape:window-width="1920"
     inkscape:window-height="1001"
     inkscape:window-x="-9"
     inkscape:window-y="-9"
     inkscape:window-maximized="1"
     inkscape:current-layer="svg4" /><rect
     style="fill:#eadfba;fill-opacity:1;stroke-width:9.32;stroke-linecap:round;stroke-miterlimit:20"
     id="rect414"
     width="1095.7897"
     height="1070.7716"
     x="-71.718353"
     y="-1000.0289"
     rx="89.258347"
     ry="89.258347" /><g
     style="display:inline;fill:none"
     id="g255"
     transform="matrix(8.0579541,0,0,8.0579541,44.870476,-915.1255)"><g
       mask="url(#a)"
       id="g203"><path
         fill-rule="evenodd"
         clip-rule="evenodd"
         d="m 13.5,20.25 h 81 v 67.5 h -81 z"
         fill="#0f9d58"
         id="path183" /><path
         fill-rule="evenodd"
         clip-rule="evenodd"
         d="m 36,56.25 a 5.063,5.063 0 1 0 0,-10.126 5.063,5.063 0 0 0 0,10.126 z m 41.063,-5.063 a 5.063,5.063 0 1 1 -10.126,0 5.063,5.063 0 0 1 10.126,0 z M 60.75,66.055 c 0,-3.555 5.828,-6.429 11.25,-6.429 5.422,0 11.25,2.874 11.25,6.43 v 3.695 h -22.5 z m -36,0 c 0,-3.555 5.828,-6.429 11.25,-6.429 5.423,0 11.25,2.874 11.25,6.43 v 3.695 h -22.5 z"
         fill="#57bb8a"
         id="path185" /><path
         fill-rule="evenodd"
         clip-rule="evenodd"
         d="m 60.75,45.001 c 0,3.73 -3.02,6.75 -6.744,6.75 a 6.753,6.753 0 0 1 -6.756,-6.75 6.756,6.756 0 0 1 6.756,-6.75 c 3.723,0 6.744,3.026 6.744,6.75 z m -22.5,20.25 c 0,-4.973 8.156,-9 15.75,-9 7.594,0 15.75,4.027 15.75,9 v 4.5 h -31.5 z"
         fill="#f7f7f7"
         id="path187" /><path
         opacity="0.2"
         fill="url(#pattern0)"
         d="m 59.625,79.876 h 27 v 11.34 h -27 z"
         id="path189" /><path
         fill-rule="evenodd"
         clip-rule="evenodd"
         d="m 63,83.251 h 20.25 v 4.5 H 63 Z"
         fill="#f1f1f1"
         id="path191" /><path
         fill-rule="evenodd"
         clip-rule="evenodd"
         d="m 11.25,11.25 h 85.5 c 3.729,0 6.75,3.02 6.75,6.75 v 72 c 0,3.729 -3.021,6.75 -6.75,6.75 H 11.25 C 7.52,96.75 4.5,93.729 4.5,90 V 18 c 0,-3.73 3.02,-6.75 6.75,-6.75 z m 2.25,76.5 h 81 v -67.5 h -81 z"
         fill="#f4b400"
         id="path193" /><path
         opacity="0.2"
         fill-rule="evenodd"
         clip-rule="evenodd"
         d="M 96.75,11.25 H 11.25 C 7.52,11.25 4.5,14.27 4.5,18 v 0.562 c 0,-3.73 3.02,-6.75 6.75,-6.75 h 85.5 c 3.729,0 6.75,3.02 6.75,6.75 v -0.563 c 0,-3.729 -3.021,-6.75 -6.75,-6.75 z"
         fill="#ffffff"
         id="path195" /><path
         opacity="0.2"
         fill-rule="evenodd"
         clip-rule="evenodd"
         d="m 96.75,96.188 h -85.5 c -3.73,0 -6.75,-3.021 -6.75,-6.75 V 90 c 0,3.73 3.02,6.75 6.75,6.75 h 85.5 c 3.729,0 6.75,-3.02 6.75,-6.75 v -0.563 c 0,3.73 -3.021,6.75 -6.75,6.75 z"
         fill="#bf360c"
         id="path197" /><path
         fill-rule="evenodd"
         clip-rule="evenodd"
         d="m 83.216,87.75 h -20.25 l 8.995,9 h 20.238 z"
         fill="url(#paint0_linear)"
         id="path199"
         style="fill:url(#paint0_linear)" /><path
         opacity="0.2"
         fill-rule="evenodd"
         clip-rule="evenodd"
         d="m 13.5,19.687 h 81 v 0.563 h -81 z"
         fill="#263238"
         id="path201" /></g><g
       mask="url(#b)"
       id="g210"><path
         opacity="0.2"
         fill-rule="evenodd"
         clip-rule="evenodd"
         d="m 13.5,87.75 h 81 v 0.563 h -81 z"
         fill="#ffffff"
         id="path208" /></g><path
       fill-rule="evenodd"
       clip-rule="evenodd"
       d="M 96.75,11.25 H 11.25 C 7.52,11.25 4.5,14.27 4.5,18 v 72 c 0,3.729 3.02,6.75 6.75,6.75 h 85.5 c 3.729,0 6.75,-3.021 6.75,-6.75 V 18 c 0,-3.73 -3.021,-6.75 -6.75,-6.75 z"
       fill="url(#paint1_radial)"
       id="path212"
       style="fill:url(#paint1_radial)" /></g></svg>
