<?xml version="1.0" encoding="UTF-8" standalone="no"?>
<svg
   width="148"
   height="148"
   viewBox="0 0 148 148"
   version="1.1"
   id="svg25"
   sodipodi:docname="sl.svg"
   inkscape:export-filename="sl.png"
   inkscape:export-xdpi="332.10809"
   inkscape:export-ydpi="332.10809"
   inkscape:version="1.2.1 (9c6d41e410, 2022-07-14)"
   xmlns:inkscape="http://www.inkscape.org/namespaces/inkscape"
   xmlns:sodipodi="http://sodipodi.sourceforge.net/DTD/sodipodi-0.dtd"
   xmlns:xlink="http://www.w3.org/1999/xlink"
   xmlns="http://www.w3.org/2000/svg"
   xmlns:svg="http://www.w3.org/2000/svg"
   xmlns:rdf="http://www.w3.org/1999/02/22-rdf-syntax-ns#"
   xmlns:cc="http://creativecommons.org/ns#"
   xmlns:dc="http://purl.org/dc/elements/1.1/">
  <sodipodi:namedview
     id="namedview27"
     pagecolor="#505050"
     bordercolor="#ffffff"
     borderopacity="1"
     inkscape:showpageshadow="0"
     inkscape:pageopacity="0"
     inkscape:pagecheckerboard="1"
     inkscape:deskcolor="#505050"
     showgrid="false"
     inkscape:zoom="3.6043186"
     inkscape:cx="23.721543"
     inkscape:cy="75.326304"
     inkscape:window-width="1920"
     inkscape:window-height="1001"
     inkscape:window-x="-9"
     inkscape:window-y="-9"
     inkscape:window-maximized="1"
     inkscape:current-layer="g673" />
  <!-- Generator: Sketch 52.2 (67145) - http://www.bohemiancoding.com/sketch -->
  <title
     id="title2">skola24_logo_cmyk</title>
  <desc
     id="desc4">Created with Sketch.</desc>
  <defs
     id="defs7">
    <polygon
       id="path-1"
       points="325.52696,147.95751 0,147.95751 0,0.29954067 325.52696,0.29954067 " />
    <mask
       id="mask-2-4"
       fill="#ffffff">
      <use
         xlink:href="#path-1"
         id="use9-7" />
    </mask>
    <mask
       id="mask-2-4-0"
       fill="#ffffff">
      <use
         xlink:href="#path-1"
         id="use9-7-2" />
    </mask>
  </defs>
  <g
     id="g673"
     transform="translate(2.215935,-0.35343411)">
    <rect
       style="display:inline;fill:#2870f0;fill-opacity:1;stroke:#000000;stroke-width:1.5;stroke-linecap:round;stroke-miterlimit:20"
       id="rect727"
       width="177.84221"
       height="184.77834"
       x="-16.924143"
       y="-21.085815"
       rx="2.2314587"
       ry="2.2314587"
       transform="translate(-2.215935,0.35343411)" />
    <path
       d="m 71.784009,109.31946 a 47.099976,47.099976 0 0 0 33.524051,-13.886063 47.099976,47.099976 0 0 0 13.88605,-33.52404 v -0.973801 h -5.56035 v 0.973801 c 0,11.179948 -4.35346,21.688309 -12.25647,29.593283 A 41.57716,41.57716 0 0 1 71.784009,103.7591 c -11.179948,0 -21.688308,-4.351493 -29.593283,-12.25646 A 41.575185,41.575185 0 0 1 29.934264,61.907382 V 60.93358 h -5.560346 v 0.973802 a 47.098,47.098 0 0 0 13.886049,33.524041 47.099976,47.099976 0 0 0 33.524042,13.886047 z m 0,-76.813762 c 16.212899,0 29.403661,13.190758 29.403661,29.403659 0,16.214875 -13.190762,29.405634 -29.403661,29.405634 -16.2129,0 -29.405634,-13.190759 -29.405634,-29.405634 0,-16.212901 13.192734,-29.403659 29.405634,-29.403659 z m 0,64.369638 c 9.33901,0 18.119019,-3.638422 24.724279,-10.241702 A 34.73685,34.73685 0 0 0 106.74604,61.909357 c 0,-9.33901 -3.63447,-18.119023 -10.239725,-24.722303 a 34.73685,34.73685 0 0 0 -24.722306,-10.2417 34.73685,34.73685 0 0 0 -24.724277,10.2417 34.73685,34.73685 0 0 0 -10.237751,24.720328 c 0,9.340984 3.63447,18.120997 10.239726,24.724277 a 34.73685,34.73685 0 0 0 24.722302,10.243677 z m 54.289911,-35.93978 v 0.973801 c 0,14.502328 -5.64726,28.135544 -15.90081,38.389093 -10.253553,10.25355 -23.888746,15.90081 -38.389101,15.90081 -14.500353,0 -28.135544,-5.64726 -38.389097,-15.90081 C 23.141359,90.044901 17.494102,76.411685 17.494102,61.909357 v -0.973801 h -5.560345 v 0.973801 c 0,8.078796 1.58218,15.916612 4.705059,23.298143 a 59.6468,59.6468 0 0 0 12.825337,19.02172 59.652726,59.652726 0 0 0 42.319856,17.53237 59.652726,59.652726 0 0 0 42.319861,-17.5304 59.650751,59.650751 0 0 0 12.82533,-19.021716 59.480879,59.480879 0 0 0 4.70507,-23.302092 V 60.93358 h -5.56035 z M 92.455061,69.257309 H 82.114597 V 47.094938 h -5.988976 v 27.507413 h 16.32944 z M 62.44895,69.745197 c -4.661604,0 -7.887197,-3.04782 -7.887197,-3.04782 l -3.33028,4.09668 c 0,0 4.302106,4.187543 11.102912,4.187543 6.064036,0 9.984918,-3.330281 9.984918,-8.481749 0,-5.396398 -4.282354,-7.18203 -8.910379,-8.30595 -5.368745,-1.283917 -5.629478,-2.174757 -5.629478,-3.640397 0,-1.603908 1.355025,-2.599437 3.537682,-2.599437 3.421143,0 6.093664,2.000935 6.093664,2.000935 l 3.371762,-4.155939 c 0,0 -3.452747,-3.077448 -9.390366,-3.077448 -5.603801,0 -9.370614,3.314479 -9.370614,8.246692 0,5.214676 3.377687,7.051665 9.212593,8.461997 5.325291,1.230584 5.325291,2.295247 5.325291,3.525832 0,1.718472 -1.576254,2.789061 -4.110508,2.789061 z"
       fill="#ffffff"
       fill-rule="evenodd"
       id="path2"
       style="stroke-width:1.97526" />
  </g>
  <metadata
     id="metadata668">
    <rdf:RDF>
      <cc:Work
         rdf:about="">
        <dc:title>skola24_logo_cmyk</dc:title>
      </cc:Work>
    </rdf:RDF>
  </metadata>
</svg>
